<svg width="24" height="24" viewBox="0 0 24 24" fill="none" xmlns="http://www.w3.org/2000/svg">
    <path d="M20.5881 0.130222C20.4571 0.207164 20.3 0.35513 20.2371 0.467583C20.1271 0.656979 20.1166 0.733921 20.1166 1.60396V2.5391L19.2575 2.55686C18.3145 2.57461 18.2516 2.59829 18.0002 2.983C17.8483 3.21382 17.8483 3.77017 18.0002 4.001C18.2516 4.38571 18.3145 4.40938 19.2575 4.42714L20.1166 4.4449V5.38004C20.1166 6.25007 20.1271 6.32702 20.2371 6.51641C20.4047 6.80642 20.7871 7.00766 21.0648 6.95439C21.3424 6.90112 21.6672 6.5756 21.7406 6.28559C21.7668 6.16129 21.793 5.69964 21.793 5.25575V4.4449L22.6259 4.42714C23.5532 4.40938 23.6265 4.37979 23.878 3.96549C24.1137 3.57486 23.9985 3.02443 23.6108 2.6989C23.4746 2.58645 23.3751 2.57461 22.6259 2.55686L21.793 2.5391V1.72825C21.793 1.28435 21.7668 0.8227 21.7406 0.710247C21.6515 0.343292 21.2429 1.24193e-05 20.9024 1.24193e-05C20.8552 1.24193e-05 20.7138 0.0591986 20.5881 0.130222Z"/>
    <path d="M8.27208 0.73391C8.14111 0.769421 7.92633 0.875957 7.8006 0.958817C7.36579 1.24883 7.16148 1.57435 6.5276 3.00666C6.19756 3.75241 5.88848 4.37978 5.84133 4.40345C5.79418 4.42121 5.08696 4.43897 4.27497 4.43897C3.43678 4.43897 2.66146 4.46856 2.48334 4.50407C1.3675 4.7349 0.366917 5.80025 0.0787897 7.07275C0.0106869 7.3746 0.000209547 8.3275 0.000209547 14.2224C0.000209547 21.7805 -0.0207452 21.3544 0.356439 22.1593C0.723147 22.9524 1.33607 23.5383 2.12187 23.8402L2.54097 24H11.9444C19.6714 24 21.4002 23.9882 21.6359 23.9171C22.7361 23.6153 23.6581 22.5736 23.9148 21.3603C23.9829 21.0348 23.9933 20.1529 23.9933 15.2819C23.9933 10.1386 23.9829 9.55857 23.9095 9.37509C23.7838 9.07916 23.5533 8.91936 23.2128 8.88977C22.867 8.86609 22.6313 9.00814 22.4532 9.35142C22.3432 9.55265 22.3432 9.64143 22.317 15.3055L22.2908 21.0525L22.1336 21.3425C21.9398 21.6917 21.5731 21.9818 21.2168 22.0705C20.8397 22.1593 3.15389 22.1593 2.77671 22.0705C2.42048 21.9818 2.05377 21.6917 1.85994 21.3425L1.70278 21.0525L1.68706 14.3112L1.67659 7.56991L1.7866 7.2799C1.84946 7.1201 1.99091 6.88927 2.10616 6.7709C2.5043 6.36843 2.50954 6.36843 4.45308 6.33292L6.20804 6.30333L6.55379 6.11393C7.08814 5.818 7.25578 5.5635 7.91585 4.07201C8.23541 3.34402 8.53401 2.70481 8.58116 2.64562C8.6545 2.55093 8.86405 2.54501 11.5358 2.54501C14.2913 2.54501 14.417 2.53909 14.6109 2.42663C14.7261 2.36153 14.8676 2.21356 14.9357 2.09519C15.1871 1.63354 15.0352 1.01208 14.6109 0.769421C14.417 0.656968 14.2966 0.651049 11.4624 0.656968C9.29886 0.656968 8.45019 0.680642 8.27208 0.73391Z"/>
    <path d="M11.342 7.64095C10.1685 7.81259 9.11033 8.40445 8.24595 9.37511C7.58587 10.1209 7.17726 10.908 6.87865 11.9971C6.75292 12.4765 6.73721 12.6067 6.73721 13.5536C6.73197 14.4592 6.74768 14.6486 6.85246 15.0925C7.10391 16.1164 7.52825 16.9569 8.1988 17.744C8.88506 18.5608 9.7023 19.1053 10.6872 19.4012C11.3839 19.6084 12.5312 19.6202 13.2174 19.4249C14.239 19.1349 15.0877 18.5845 15.7949 17.744C16.4707 16.9509 16.9002 16.0927 17.136 15.0925C17.3036 14.3527 17.3298 13.1749 17.1936 12.4291C16.9736 11.2276 16.5126 10.2451 15.7687 9.4047C14.8676 8.38078 13.8513 7.81259 12.5993 7.64095C12.0702 7.56993 11.8659 7.56993 11.342 7.64095ZM12.9136 9.62369C13.3641 9.7539 13.9247 10.0794 14.3071 10.4405C15.7215 11.7603 16.0306 14.1218 15.0143 15.8501C14.3542 16.9687 13.1703 17.6967 11.9968 17.6967C10.4829 17.6967 9.0527 16.5366 8.57074 14.9149C8.37167 14.258 8.32976 13.3643 8.45549 12.7132C8.78553 11.0501 9.96947 9.80716 11.4992 9.52307C11.8397 9.46388 12.5155 9.51123 12.9136 9.62369Z" />
</svg>
