<svg viewBox="0 0 24 25" fill="none" xmlns="http://www.w3.org/2000/svg">
    <path d="M21.8434 0.502781C21.5446 0.632779 21.1538 1.17444 13.3161 12.1159C10.7111 15.745 8.54291 18.7458 8.49694 18.7675C8.45097 18.7891 7.08721 16.9258 5.4553 14.6292C3.83105 12.3326 2.39068 10.3826 2.25277 10.2851C1.91566 10.0468 1.29507 10.0685 0.942643 10.3176C0.130517 10.9134 -0.229576 12.2892 0.153502 13.3401C0.237779 13.5567 1.96929 16.0917 4.00727 18.9516C6.97995 23.1441 7.76909 24.1949 8.0066 24.3032C8.35903 24.4657 9.01026 24.3899 9.37036 24.1515C9.7611 23.8916 23.7281 4.08855 23.8737 3.59023C24.4023 1.77026 23.1841 -0.0930423 21.8434 0.502781Z" />
</svg>
