<svg width="24" height="25" viewBox="0 0 24 25" fill="none" xmlns="http://www.w3.org/2000/svg">
    <path d="M7.2599 2.19331C5.6999 3.75329 5.3999 4.47329 5.3999 6.93326C5.3999 9.39324 5.6999 10.1132 7.2599 11.6732C8.8199 13.2332 9.5399 13.5332 11.9999 13.5332C14.4599 13.5332 15.1799 13.2332 16.7399 11.6732C18.2999 10.1132 18.5999 9.39324 18.5999 6.93326C18.5999 4.47329 18.2999 3.75329 16.7399 2.19331C15.1799 0.633322 14.4599 0.333325 11.9999 0.333325C9.5399 0.333325 8.8199 0.633322 7.2599 2.19331ZM15.4199 3.4533C18.4799 6.33327 16.3199 11.7332 12.0599 11.7332C9.2399 11.7332 7.1999 9.81324 7.1999 6.99326C7.1999 2.6733 12.2399 0.453324 15.4199 3.4533Z" fill="black"/>
    <path d="M5.94 17.7334C3.78 18.8734 0 22.7133 0 23.7333C0 24.9333 1.26 24.2733 3 22.2933C5.4 19.5934 8.22 18.3334 12 18.3334C15.78 18.3334 18.6 19.5934 21 22.2933C22.74 24.2733 24 24.9333 24 23.7333C24 22.6533 20.22 18.8734 17.94 17.6734C14.88 16.1134 8.94 16.1734 5.94 17.7334Z" fill="black"/>
</svg>
