<svg width="25" height="25" viewBox="0 0 25 25" fill="none" xmlns="http://www.w3.org/2000/svg">
    <path d="M24.3125 22.7344C24.5938 22.9844 24.5938 23.25 24.3125 23.5312L23.2812 24.5625C23 24.8438 22.7344 24.8438 22.4844 24.5625L16.8125 18.8906C16.6875 18.7656 16.625 18.6406 16.625 18.5156V17.8594C14.7813 19.4531 12.6562 20.25 10.25 20.25C7.5625 20.25 5.26563 19.2969 3.35938 17.3906C1.45312 15.4844 0.5 13.1875 0.5 10.5C0.5 7.8125 1.45312 5.51563 3.35938 3.60938C5.26563 1.70312 7.5625 0.75 10.25 0.75C12.9375 0.75 15.2344 1.70312 17.1406 3.60938C19.0469 5.51563 20 7.8125 20 10.5C20 12.9062 19.2031 15.0313 17.6094 16.875H18.2656C18.4219 16.875 18.5469 16.9375 18.6406 17.0625L24.3125 22.7344ZM4.95312 15.7969C4.95312 15.7969 5.32031 16.1641 6.05469 16.8984C6.78906 17.6328 8.1875 18 10.25 18C12.3125 18 14.0781 17.2656 15.5469 15.7969C17.0156 14.3281 17.75 12.5625 17.75 10.5C17.75 8.4375 17.0156 6.67188 15.5469 5.20312C14.0781 3.73437 12.3125 3 10.25 3C8.1875 3 6.42188 3.73437 4.95312 5.20312C3.48437 6.67188 2.75 8.4375 2.75 10.5C2.75 12.5625 3.48437 14.3281 4.95312 15.7969Z" />
</svg>
