<svg width="100" height="118" viewBox="0 0 100 118" fill="none" xmlns="http://www.w3.org/2000/svg">	<g clip-path="url(#clip0_600_5)">		<path d="M30.7355 0.285943C28.1074 0.678246 25.1475 1.4167 23.3869 2.13208L21.9836 2.68592L19.8147 1.90131C17.1355 0.93209 13.6399 0.216713 11.5731 0.193636C8.79185 0.193636 6.34233 1.76285 5.47479 4.11667C4.45415 6.88587 4.0459 12.4473 4.60725 16.0012C4.86241 17.755 4.86241 17.8011 3.96935 19.7626C2.84665 22.3242 2.20876 24.078 1.54534 26.3856C0.371612 30.5856 0.193001 32.224 0.0654213 38.6163C-0.291801 55.9699 2.05566 69.1236 7.15884 78.6312C8.91943 81.9081 9.53181 82.5773 10.7566 82.5773C12.1089 82.5773 12.6958 82.0466 13.0275 80.4773C13.2061 79.6466 13.6399 78.7235 14.0992 78.1466L14.8646 77.1774L15.7067 78.0543C16.9059 79.3235 18.5389 82.2773 18.9982 84.0081C19.2023 84.8158 19.4575 86.385 19.534 87.4927C19.7637 90.008 20.274 90.5618 22.2898 90.4465C22.8256 90.4234 24.3821 88.9696 26.6019 86.4311L28.1584 84.6311L28.8473 85.8542C30.0721 87.9773 31.1948 90.6772 30.9652 90.8849C30.8376 91.0003 27.9288 91.8311 24.4841 92.7311C15.5025 95.0849 12.3641 96.2849 8.63876 98.7541C3.30594 102.285 0.44816 107.454 0.0654213 114.192C-0.0621581 116.638 -0.0366422 116.892 0.44816 117.423L0.958477 118H50H99.0415L99.5518 117.423C100.037 116.892 100.062 116.638 99.9346 114.192C99.756 111.077 99.067 108.354 97.8678 106C94.6018 99.631 88.9117 96.1233 76.7917 93.0541C72.5305 91.9695 69.5962 91.1388 69.1624 90.908C68.8562 90.7234 68.9583 90.3772 69.6217 88.8773C70.081 87.885 70.7444 86.5234 71.1527 85.8542L71.8416 84.6311L73.3981 86.4311C75.6179 88.9696 77.1744 90.4234 77.7102 90.4465C79.7515 90.5618 80.2363 90.008 80.466 87.3542C80.6701 84.7696 81.1804 82.9465 82.201 81.0773C83.0431 79.485 84.7016 77.4082 85.0843 77.4082C85.5947 77.4082 86.7429 79.2774 86.998 80.5004C87.3042 81.9773 87.9166 82.5773 89.2179 82.5773C90.4682 82.5773 91.0551 81.9312 92.8412 78.6312C97.9443 69.1467 100.266 56.0161 99.9346 38.7086C99.858 33.5625 99.7305 31.924 99.2967 29.8471C98.6078 26.5933 97.5616 23.3395 96.2093 20.2242L95.1376 17.755L95.3928 16.0012C95.7755 13.555 95.75 10.1628 95.2907 7.57817C94.5762 3.28591 93.7342 1.87823 91.1826 0.747476C89.8813 0.17056 89.6006 0.147483 87.5594 0.262866C85.2119 0.401326 81.8949 1.18593 79.4964 2.13208L78.0675 2.70899L76.6131 2.13208C71.4078 0.0320998 63.0131 -0.614047 57.5782 0.632093C55.3328 1.16286 52.0668 2.29361 50.842 2.98591L50 3.47052L49.158 2.98591C47.9332 2.31669 44.6672 1.16286 42.4218 0.632093C39.8447 0.0320998 33.6698 -0.152514 30.7355 0.285943ZM38.6709 4.11667C42.4728 4.55513 45.4582 5.45512 47.8311 6.88587C48.6732 7.37048 49.6428 7.78586 50 7.80894C50.3572 7.80894 51.4289 7.3474 52.373 6.77049C55.6135 4.8782 59.5174 4.02436 64.7992 4.02436C68.3459 4.02436 70.4382 4.30128 72.505 5.01666L73.1939 5.24743L70.3362 7.85509L67.4784 10.4628L64.6716 9.7243C61.278 8.82431 60.436 8.80123 59.594 9.47045C58.8795 10.0474 58.7264 10.6012 59.0071 11.5474C59.2367 12.355 59.5429 12.4935 63.1917 13.4396C74.2911 16.3242 83.5534 22.8549 88.0952 31.0241C88.9117 32.501 89.371 32.824 90.5192 32.801C91.6164 32.7779 92.6115 31.901 92.6115 30.9548C92.6115 30.6087 92.1012 29.4779 91.4633 28.4164L90.2896 26.478L91.5143 25.001C92.1778 24.1703 92.8156 23.5011 92.8922 23.5011C93.0963 23.5011 94.0659 26.5703 94.6528 29.1318C95.5714 33.1702 95.75 36.1009 95.5969 43.6931C95.2907 57.2161 93.8618 65.7083 90.5192 73.6928C90.0854 74.7082 89.7027 75.5851 89.6517 75.6312C89.6006 75.6774 88.9883 75.262 88.3249 74.6851C86.7939 73.3928 85.7477 72.8851 84.6506 72.8851C83.9361 72.8851 83.5024 73.162 81.7673 74.7774C79.4198 76.9697 77.8123 79.485 77.0723 82.1389L76.6131 83.7773L75.9497 83.0158C75.5924 82.5773 74.8525 81.5619 74.2911 80.7312C72.8877 78.6081 71.4844 78.1697 70.2086 79.4158C69.29 80.3158 66.4067 85.3696 65.3095 87.9773L65.0289 88.6465L64.3399 87.7465C63.2172 86.2696 62.4517 84.0542 62.3242 81.885L62.1966 79.9235L64.6971 78.3774C71.2292 74.3851 76.2558 69.3544 79.4708 63.516C80.8487 61.0237 80.9252 60.9314 81.8438 60.793C83.5789 60.5391 85.9774 59.3391 87.4828 57.9314C90.111 55.5084 91.4888 52.0007 91.2592 48.4239C90.9785 44.4547 89.0648 41.9162 85.9264 41.4086C85.0078 41.247 84.9823 41.247 84.8292 39.9316C84.3954 36.0317 83.2217 33.5394 80.7466 31.1625C78.093 28.601 75.1587 27.3318 68.2949 25.6933C62.3752 24.2857 58.905 22.7165 55.1032 19.7165C51.8116 17.1319 51.6585 17.0396 50 17.0396C48.3415 17.0396 48.1629 17.1319 44.9734 19.6473C41.2225 22.6242 37.7269 24.2164 31.6541 25.6933C24.6372 27.4241 22.3153 28.4164 19.6106 30.8625C16.8038 33.401 15.6301 35.7779 15.1708 39.9086C15.0177 41.2009 14.9922 41.2239 14.0736 41.3855C10.9097 41.9162 9.0215 44.4316 8.74082 48.4239C8.51118 51.9777 9.9911 55.6238 12.6703 58.0699C14.0736 59.3622 16.4211 60.516 18.1562 60.7699C19.1003 60.9314 19.2278 61.0237 19.8657 62.3622C22.9787 68.5698 28.5922 74.362 35.6856 78.6312L37.8034 79.9004L37.7013 81.885C37.5738 84.0773 36.9104 85.9927 35.7366 87.6311L34.9711 88.6696L34.6905 88.0003C33.5167 85.2081 30.761 80.362 29.7914 79.4158C28.5156 78.1697 27.1123 78.6081 25.7089 80.7312C25.1475 81.5619 24.4076 82.5773 24.0248 83.0158L23.3614 83.8235L23.0297 82.4389C22.8511 81.7004 22.1622 80.085 21.4988 78.8851C20.5547 77.1774 19.8657 76.3005 18.2582 74.8005C16.4976 73.162 16.0639 72.8851 15.3494 72.8851C14.2523 72.8851 13.2061 73.3928 11.6751 74.6851C11.0117 75.262 10.3994 75.6774 10.3483 75.6312C10.2973 75.5851 9.91455 74.7082 9.48078 73.6928C6.11268 65.616 4.6838 57.2161 4.40312 43.4624C4.25003 35.9394 4.40312 33.3317 5.24515 29.501C5.72995 27.2626 6.90368 23.5011 7.1078 23.5011C7.18435 23.5011 7.79673 24.1703 8.46015 24.978L9.68491 26.4549L8.53669 28.3933C7.23538 30.5856 7.13332 31.2779 8.00086 32.1779C8.46015 32.6856 8.81737 32.824 9.58284 32.801C10.7566 32.7779 11.1138 32.4087 12.6958 29.801C17.3142 22.1165 26.2702 16.1165 37.4207 13.3012C40.6357 12.4704 41.1715 12.1243 41.1205 10.7397C41.095 9.79353 40.0743 8.96277 38.9516 8.98584C38.4923 8.98584 36.8848 9.30892 35.3539 9.7243L32.5727 10.4628L29.8169 7.97047C28.3115 6.60895 27.0357 5.40896 27.0102 5.31666C26.9592 5.08589 29.6128 4.39359 31.4755 4.13975C33.6954 3.86283 36.2725 3.83975 38.6709 4.11667ZM15.4005 4.69359C19.432 5.66281 23.0042 7.46279 26.0661 10.0935L28.337 12.032L26.0406 13.1166C21.6263 15.2396 17.2376 18.3088 13.8695 21.6319L12.3896 23.0857L11.9048 22.5549C11.0883 21.6549 9.76146 19.0473 9.27665 17.4781C8.91943 16.3704 8.81737 15.1242 8.79185 12.4243C8.79185 7.80894 9.42975 4.69359 10.5014 4.25513C11.0117 4.04744 13.7419 4.30128 15.4005 4.69359ZM89.422 4.25513C90.5447 4.64743 91.2081 7.6474 91.2081 12.4243C91.1826 15.1242 91.0806 16.3704 90.7233 17.4781C90.2641 19.0011 89.1158 21.2626 88.1973 22.4165L87.687 23.0857L85.365 20.9165C81.6907 17.5242 78.3226 15.2165 74.0104 13.1627L71.714 12.055L73.5512 10.4166C77.0213 7.3474 80.9763 5.40896 85.7222 4.43974C87.3297 4.11667 88.8097 4.04744 89.422 4.25513ZM51.9392 22.4857C56.7362 26.2472 60.3084 27.8164 69.3666 30.0779C75.0056 31.4625 77.8123 33.1702 79.3433 36.1009C80.3639 37.9932 80.5425 39.5393 80.3384 44.5008C80.1343 49.1623 79.5474 52.2084 78.0675 56.2699C75.72 62.7545 71.9947 67.8775 66.4833 72.1928C60.5381 76.8312 55.9197 78.6543 50 78.6543C44.0038 78.6543 39.2578 76.762 33.2616 72.0082C27.8522 67.6929 24.2545 62.7083 21.9325 56.3161C20.1464 51.3777 19.7637 49.07 19.7637 43.0008V37.6932L20.6312 36.124C21.805 34.0009 23.8207 32.3164 26.3723 31.3702C27.444 30.9779 30.2252 30.1702 32.5727 29.5933C37.4207 28.3933 40.406 27.2856 43.2638 25.6933C45.3051 24.5395 48.5201 22.3011 49.3366 21.4703C49.6173 21.1934 49.8724 20.9626 49.9235 20.9626C49.9745 20.9626 50.8931 21.6549 51.9392 22.4857ZM15.4005 46.97C15.6811 49.9008 16.6252 54.4469 17.2376 55.9238C17.5183 56.5468 16.9314 56.293 15.8087 55.3238C13.053 52.9007 12.1089 47.6393 14.0736 45.7008C14.9922 44.847 15.2219 45.0547 15.4005 46.97ZM85.9264 45.7008C87.8911 47.6393 86.947 52.9007 84.1913 55.3238C83.0431 56.3161 82.4817 56.5468 82.7879 55.8545C83.3493 54.5392 84.3189 49.8085 84.574 47.0854C84.7781 45.0547 85.0078 44.8239 85.9264 45.7008ZM45.2285 82.2081C48.6477 82.8312 52.9343 82.6696 57.272 81.7235C57.7568 81.6312 57.8079 81.7927 58.0885 83.5465C58.4968 86.2004 59.5174 88.508 61.3801 90.7926C61.7628 91.2772 61.7118 91.3234 60.2829 92.108C56.0728 94.4387 49.8724 95.131 44.5396 93.8849C42.6769 93.4464 39.9212 92.3618 38.8496 91.6234L38.2627 91.2311L39.1047 90.1465C40.7633 88.0696 42.0646 84.6081 42.0901 82.3696C42.0901 81.7004 42.1666 81.6081 42.6769 81.7235C42.9831 81.7927 44.1313 82.0004 45.2285 82.2081ZM36.1704 94.7849C40.5591 97.4618 45.9685 98.731 51.633 98.4079C56.0983 98.1541 60.0022 97.0233 63.4214 95.0156L65.3606 93.8618L67.4273 94.5541C68.5756 94.9464 71.9181 95.8926 74.8525 96.6541C84.3189 99.1464 87.3042 100.416 90.5958 103.369C93.4025 105.885 94.8824 108.769 95.5458 113.085L95.6989 114.192H87.0235H78.3226V111.908C78.3226 109.808 78.2716 109.554 77.7102 108.977C76.8682 108.077 75.4393 108.077 74.5973 108.977C74.036 109.554 73.9849 109.808 73.9849 111.908V114.192H68.3969H62.809L62.6304 113.315C62.0435 110.408 59.1092 107.131 55.7666 105.654C51.8116 103.877 48.0863 103.9 44.1313 105.677C40.8653 107.154 37.9565 110.454 37.3696 113.315L37.191 114.192H31.6031H26.0151V111.908C26.0151 109.808 25.964 109.554 25.4027 108.977C24.5607 108.077 23.1318 108.077 22.2898 108.977C21.7284 109.554 21.6774 109.808 21.6774 111.908V114.192H13.002C4.91344 114.192 4.32657 114.169 4.32657 113.777C4.32657 113.569 4.55622 112.462 4.81138 111.308C6.03614 105.977 9.20011 102.4 14.9157 99.9079C17.7224 98.6848 19.9933 97.9695 26.8316 96.2156C29.3321 95.5695 32.0368 94.7849 32.8278 94.4849C33.6443 94.1849 34.4098 93.908 34.5119 93.908C34.6139 93.8849 35.3794 94.2772 36.1704 94.7849ZM53.4446 108.977C55.6645 109.877 57.3996 111.539 58.114 113.431L58.3947 114.192H50H41.6053L42.0135 113.154C42.779 111.1 45.6623 108.908 48.2649 108.423C49.8214 108.146 51.9392 108.377 53.4446 108.977Z" fill="#FF4656"/>		<path d="M33.5419 35.0625C30.7606 35.3856 28.2346 36.4471 26.8057 37.924C25.9637 38.801 25.8361 39.3779 26.3209 40.1856C27.1119 41.524 28.5152 41.6394 30.1227 40.4625C31.8833 39.2163 33.2612 38.8933 36.1955 39.0548C40.1505 39.3086 40.0995 39.3086 40.7373 38.6394C41.4263 37.901 41.4773 37.3471 40.9415 36.4241C40.6353 35.8933 40.2525 35.6625 39.2064 35.4087C37.4458 34.9702 35.43 34.8549 33.5419 35.0625Z" fill="#FF4656"/>		<path d="M62.8869 35.0394C60.5904 35.2702 59.4932 35.6625 59.0595 36.424C58.5236 37.3471 58.5747 37.924 59.2636 38.6394C59.9015 39.3086 59.8505 39.3086 63.8054 39.0548C66.7398 38.8932 68.1176 39.2163 69.8782 40.4624C71.3071 41.5009 72.2257 41.524 73.2718 40.5778C73.9097 39.9778 74.0118 39.7471 73.8842 39.124C73.3229 36.6086 67.8114 34.5548 62.8869 35.0394Z" fill="#FF4656"/>		<path d="M31.6278 43.8777C30.7092 44.1777 29.459 44.7085 28.8466 45.0777C27.8259 45.6315 27.6218 45.6777 26.9074 45.4469C25.7847 45.1008 25.6571 45.1239 24.764 45.7931C23.1821 46.9931 24.0496 49.0238 26.3715 49.6007C26.8819 49.7392 27.5198 49.7853 27.7749 49.693C28.1321 49.6007 28.2852 49.7623 28.4894 50.6623C28.668 51.3546 28.6935 51.9084 28.5404 52.1622C28.4128 52.3699 28.3107 52.8084 28.3107 53.1315C28.3107 54.9084 28.9997 55.1161 34.9449 55.1161H39.8439L40.6094 54.4238C41.2728 53.8238 41.3494 53.6161 41.1963 52.9699C41.0177 52.2084 41.0177 51.8392 41.1197 49.1623C41.1708 47.8238 41.0942 47.4546 40.4563 46.3931C38.7467 43.6008 35.4552 42.6547 31.6278 43.8777ZM36.3483 48.0084C37.1648 48.8854 37.0882 49.8777 36.0676 50.6623C34.0773 52.2776 31.3727 49.5546 33.2863 47.8469C34.2049 46.9931 35.4807 47.0623 36.3483 48.0084Z" fill="#FF4656"/>		<path d="M62.9882 43.647C61.5338 44.1316 60.3601 45.1008 59.5436 46.3931C58.9057 47.4546 58.8291 47.8238 58.8801 49.1623C58.9822 51.8392 58.9822 52.2084 58.8036 52.9699C58.6505 53.6161 58.727 53.8238 59.3905 54.4238L60.1559 55.1161H65.055C71.0002 55.1161 71.6891 54.9084 71.6891 53.1315C71.6891 52.8084 71.587 52.3699 71.4595 52.1392C71.1788 51.7007 71.6891 49.4392 71.9953 49.693C72.378 50.0392 74.3172 49.5084 75.1593 48.8392C75.8482 48.2854 76.0268 47.9854 76.0268 47.2931C76.0268 45.9085 74.649 45.0085 73.2456 45.4469C72.5822 45.6546 72.1994 45.5623 70.0561 44.5931C67.9638 43.67 67.3769 43.5085 65.7694 43.4162C64.6212 43.37 63.5495 43.4623 62.9882 43.647ZM66.7135 47.8469C68.6272 49.5546 65.9225 52.2776 63.9323 50.6623C62.9116 49.8777 62.8351 48.8854 63.6516 48.0084C64.5191 47.0623 65.7949 46.9931 66.7135 47.8469Z" fill="#FF4656"/>		<path d="M46.3272 55.7161C45.3065 56.6622 45.5617 58.2545 46.863 58.7853C47.654 59.1084 52.3489 59.1084 53.1654 58.7853C54.4412 58.2545 54.6453 56.5238 53.5226 55.5776C53.0378 55.1622 52.6296 55.1161 49.9759 55.1161C47.1181 55.1161 46.9906 55.1392 46.3272 55.7161Z" fill="#FF4656"/>		<path d="M41.9107 61.716C41.2983 62.2698 41.2728 62.3852 41.3748 64.6467C41.5024 67.4159 41.9872 68.5928 43.6713 70.2543C45.7891 72.3312 49.0551 73.2543 51.9894 72.562C53.8776 72.1235 55.1534 71.4312 56.4802 70.1159C58.0367 68.5466 58.496 67.3697 58.6236 64.6467C58.7256 62.3852 58.7001 62.2698 58.0877 61.716L57.4243 61.116H49.9992H42.5741L41.9107 61.716ZM54.3369 65.3851C54.3369 66.7005 52.7294 68.3159 51.0198 68.7313C49.1061 69.1928 46.7842 68.1543 46.0187 66.4928C45.3298 64.9928 45.2022 65.039 49.9992 65.039C53.7245 65.039 54.3369 65.0852 54.3369 65.3851Z" fill="#FF4656"/>	</g>	<defs>		<clipPath id="clip0_600_5">			<rect width="100" height="118" fill="white"/>		</clipPath>	</defs></svg>